<mxfile host="app.diagrams.net" modified="2023-08-17T12:54:33.297Z" agent="Mozilla/5.0 (Macintosh; Intel Mac OS X 10_15_7) AppleWebKit/537.36 (KHTML, like Gecko) Chrome/115.0.0.0 Safari/537.36" etag="eG2Y0Tzc-bA0pVja5QZ-" version="21.6.5" type="github">
  <diagram name="Page-1" id="-PrbdQjXji2XNEa-jSd8">
    <mxGraphModel dx="984" dy="575" grid="1" gridSize="10" guides="1" tooltips="1" connect="1" arrows="1" fold="1" page="1" pageScale="1" pageWidth="827" pageHeight="1169" math="0" shadow="0">
      <root>
        <mxCell id="0" />
        <mxCell id="1" parent="0" />
        <mxCell id="r-W4MLv6wnLr3ksw_QMo-15" value="" style="edgeStyle=orthogonalEdgeStyle;rounded=0;orthogonalLoop=1;jettySize=auto;html=1;entryX=0.06;entryY=0.22;entryDx=0;entryDy=0;entryPerimeter=0;" edge="1" parent="1" source="r-W4MLv6wnLr3ksw_QMo-5" target="r-W4MLv6wnLr3ksw_QMo-9">
          <mxGeometry relative="1" as="geometry">
            <mxPoint x="344" y="260" as="targetPoint" />
            <Array as="points">
              <mxPoint x="165" y="260" />
            </Array>
          </mxGeometry>
        </mxCell>
        <mxCell id="r-W4MLv6wnLr3ksw_QMo-5" value="&lt;b&gt;Index&lt;/b&gt;&lt;br&gt;datas-neo.inbound.vendor-raw" style="html=1;verticalLabelPosition=bottom;align=center;labelBackgroundColor=#ffffff;verticalAlign=top;strokeWidth=2;strokeColor=#d79b00;shadow=0;dashed=0;shape=mxgraph.ios7.icons.data;fillColor=#ffe6cc;" vertex="1" parent="1">
          <mxGeometry x="130" y="80" width="70" height="70" as="geometry" />
        </mxCell>
        <mxCell id="r-W4MLv6wnLr3ksw_QMo-16" style="edgeStyle=orthogonalEdgeStyle;rounded=0;orthogonalLoop=1;jettySize=auto;html=1;entryX=0.32;entryY=-0.04;entryDx=0;entryDy=0;entryPerimeter=0;" edge="1" parent="1" source="r-W4MLv6wnLr3ksw_QMo-6" target="r-W4MLv6wnLr3ksw_QMo-9">
          <mxGeometry relative="1" as="geometry" />
        </mxCell>
        <mxCell id="r-W4MLv6wnLr3ksw_QMo-6" value="&lt;b&gt;Index&lt;/b&gt;&lt;br&gt;datas-neo.inbound.s4-raw" style="html=1;verticalLabelPosition=bottom;align=center;labelBackgroundColor=#ffffff;verticalAlign=top;strokeWidth=2;strokeColor=#d6b656;shadow=0;dashed=0;shape=mxgraph.ios7.icons.data;fillColor=#fff2cc;" vertex="1" parent="1">
          <mxGeometry x="370" y="80" width="70" height="70" as="geometry" />
        </mxCell>
        <mxCell id="r-W4MLv6wnLr3ksw_QMo-18" style="edgeStyle=orthogonalEdgeStyle;rounded=0;orthogonalLoop=1;jettySize=auto;html=1;entryX=0.82;entryY=0.16;entryDx=0;entryDy=0;entryPerimeter=0;" edge="1" parent="1" source="r-W4MLv6wnLr3ksw_QMo-7" target="r-W4MLv6wnLr3ksw_QMo-9">
          <mxGeometry relative="1" as="geometry">
            <Array as="points">
              <mxPoint x="645" y="260" />
              <mxPoint x="430" y="260" />
            </Array>
          </mxGeometry>
        </mxCell>
        <mxCell id="r-W4MLv6wnLr3ksw_QMo-7" value="&lt;b&gt;Index&lt;/b&gt;&lt;br&gt;datas-neo.inbound.3pl-raw" style="html=1;verticalLabelPosition=bottom;align=center;labelBackgroundColor=#ffffff;verticalAlign=top;strokeWidth=2;strokeColor=#b85450;shadow=0;dashed=0;shape=mxgraph.ios7.icons.data;fillColor=#f8cecc;" vertex="1" parent="1">
          <mxGeometry x="610" y="80" width="70" height="70" as="geometry" />
        </mxCell>
        <mxCell id="r-W4MLv6wnLr3ksw_QMo-22" style="edgeStyle=orthogonalEdgeStyle;rounded=0;orthogonalLoop=1;jettySize=auto;html=1;entryX=0.5;entryY=-0.029;entryDx=0;entryDy=0;entryPerimeter=0;" edge="1" parent="1" source="r-W4MLv6wnLr3ksw_QMo-9" target="r-W4MLv6wnLr3ksw_QMo-21">
          <mxGeometry relative="1" as="geometry" />
        </mxCell>
        <mxCell id="r-W4MLv6wnLr3ksw_QMo-9" value="&lt;b&gt;Enrich policy&lt;/b&gt;&lt;br&gt;datas-neo.inbound.consolidated_enrich_policy" style="sketch=0;pointerEvents=1;shadow=0;dashed=0;html=1;strokeColor=#9673a6;labelPosition=center;verticalLabelPosition=bottom;verticalAlign=top;align=center;fillColor=#e1d5e7;shape=mxgraph.mscae.intune.policy;" vertex="1" parent="1">
          <mxGeometry x="389" y="250" width="50" height="50" as="geometry" />
        </mxCell>
        <mxCell id="r-W4MLv6wnLr3ksw_QMo-27" style="edgeStyle=orthogonalEdgeStyle;rounded=0;orthogonalLoop=1;jettySize=auto;html=1;" edge="1" parent="1" source="r-W4MLv6wnLr3ksw_QMo-21" target="r-W4MLv6wnLr3ksw_QMo-24">
          <mxGeometry relative="1" as="geometry" />
        </mxCell>
        <mxCell id="r-W4MLv6wnLr3ksw_QMo-21" value="&lt;b&gt;Index&lt;/b&gt;&lt;br&gt;datas-neo.inbound.consolidated_enrich_index" style="html=1;verticalLabelPosition=bottom;align=center;labelBackgroundColor=#ffffff;verticalAlign=top;strokeWidth=2;strokeColor=#82b366;shadow=0;dashed=0;shape=mxgraph.ios7.icons.data;fillColor=#d5e8d4;" vertex="1" parent="1">
          <mxGeometry x="379" y="390" width="70" height="70" as="geometry" />
        </mxCell>
        <mxCell id="r-W4MLv6wnLr3ksw_QMo-23" value="&lt;b&gt;Index&lt;/b&gt;&lt;br&gt;datas-neo.inbound.consolidated-raw" style="html=1;verticalLabelPosition=bottom;align=center;labelBackgroundColor=#ffffff;verticalAlign=top;strokeWidth=2;strokeColor=#6c8ebf;shadow=0;dashed=0;shape=mxgraph.ios7.icons.data;fillColor=#dae8fc;" vertex="1" parent="1">
          <mxGeometry x="360" y="980" width="70" height="70" as="geometry" />
        </mxCell>
        <mxCell id="r-W4MLv6wnLr3ksw_QMo-26" value="" style="edgeStyle=orthogonalEdgeStyle;rounded=0;orthogonalLoop=1;jettySize=auto;html=1;" edge="1" parent="1" source="r-W4MLv6wnLr3ksw_QMo-24" target="r-W4MLv6wnLr3ksw_QMo-25">
          <mxGeometry relative="1" as="geometry" />
        </mxCell>
        <mxCell id="r-W4MLv6wnLr3ksw_QMo-24" value="&lt;b&gt;Ingest pipeline&lt;/b&gt;&lt;br&gt;neo.inbound-consolidated.datas.raw-00" style="sketch=0;outlineConnect=0;fontColor=#232F3E;gradientColor=none;fillColor=#4D27AA;strokeColor=none;dashed=0;verticalLabelPosition=bottom;verticalAlign=top;align=center;html=1;fontSize=12;fontStyle=0;aspect=fixed;pointerEvents=1;shape=mxgraph.aws4.redshift_streaming_ingestion;" vertex="1" parent="1">
          <mxGeometry x="378" y="546" width="71" height="78" as="geometry" />
        </mxCell>
        <mxCell id="r-W4MLv6wnLr3ksw_QMo-39" value="" style="edgeStyle=orthogonalEdgeStyle;rounded=0;orthogonalLoop=1;jettySize=auto;html=1;" edge="1" parent="1" source="r-W4MLv6wnLr3ksw_QMo-25" target="r-W4MLv6wnLr3ksw_QMo-38">
          <mxGeometry relative="1" as="geometry" />
        </mxCell>
        <mxCell id="r-W4MLv6wnLr3ksw_QMo-25" value="neo.inbound-consolidated.datas.raw-01a-remap_s4" style="sketch=0;outlineConnect=0;fontColor=#0D0D0D;fillColor=#60a917;strokeColor=#2D7600;dashed=0;verticalLabelPosition=bottom;verticalAlign=top;align=center;html=1;fontSize=12;fontStyle=0;aspect=fixed;pointerEvents=1;shape=mxgraph.aws4.redshift_streaming_ingestion;" vertex="1" parent="1">
          <mxGeometry x="129.99999999999994" y="690" width="30.95" height="34" as="geometry" />
        </mxCell>
        <mxCell id="r-W4MLv6wnLr3ksw_QMo-41" value="" style="edgeStyle=orthogonalEdgeStyle;rounded=0;orthogonalLoop=1;jettySize=auto;html=1;" edge="1" parent="1" source="r-W4MLv6wnLr3ksw_QMo-38" target="r-W4MLv6wnLr3ksw_QMo-40">
          <mxGeometry relative="1" as="geometry" />
        </mxCell>
        <mxCell id="r-W4MLv6wnLr3ksw_QMo-38" value="neo.inbound-consolidated.datas.raw-01b-remap_vendor" style="sketch=0;outlineConnect=0;fontColor=#0D0D0D;fillColor=#008a00;strokeColor=#005700;dashed=0;verticalLabelPosition=bottom;verticalAlign=top;align=center;html=1;fontSize=12;fontStyle=0;aspect=fixed;pointerEvents=1;shape=mxgraph.aws4.redshift_streaming_ingestion;" vertex="1" parent="1">
          <mxGeometry x="408.04999999999995" y="710" width="30.95" height="34" as="geometry" />
        </mxCell>
        <mxCell id="r-W4MLv6wnLr3ksw_QMo-43" value="" style="edgeStyle=orthogonalEdgeStyle;rounded=0;orthogonalLoop=1;jettySize=auto;html=1;" edge="1" parent="1" source="r-W4MLv6wnLr3ksw_QMo-40" target="r-W4MLv6wnLr3ksw_QMo-42">
          <mxGeometry relative="1" as="geometry" />
        </mxCell>
        <mxCell id="r-W4MLv6wnLr3ksw_QMo-40" value="neo.inbound-consolidated.datas.raw-01c-remap_3pl" style="sketch=0;outlineConnect=0;fontColor=#0D0D0D;fillColor=#1ba1e2;strokeColor=#006EAF;dashed=0;verticalLabelPosition=bottom;verticalAlign=top;align=center;html=1;fontSize=12;fontStyle=0;aspect=fixed;pointerEvents=1;shape=mxgraph.aws4.redshift_streaming_ingestion;" vertex="1" parent="1">
          <mxGeometry x="670" y="724" width="30.95" height="34" as="geometry" />
        </mxCell>
        <mxCell id="r-W4MLv6wnLr3ksw_QMo-45" value="" style="edgeStyle=orthogonalEdgeStyle;rounded=0;orthogonalLoop=1;jettySize=auto;html=1;" edge="1" parent="1" source="r-W4MLv6wnLr3ksw_QMo-42" target="r-W4MLv6wnLr3ksw_QMo-44">
          <mxGeometry relative="1" as="geometry" />
        </mxCell>
        <mxCell id="r-W4MLv6wnLr3ksw_QMo-42" value="neo.inbound-consolidated.datas.raw-02-aggregation" style="sketch=0;outlineConnect=0;fontColor=#0D0D0D;fillColor=#0050ef;strokeColor=#001DBC;dashed=0;verticalLabelPosition=bottom;verticalAlign=top;align=center;html=1;fontSize=12;fontStyle=0;aspect=fixed;pointerEvents=1;shape=mxgraph.aws4.redshift_streaming_ingestion;" vertex="1" parent="1">
          <mxGeometry x="670" y="800" width="30.95" height="34" as="geometry" />
        </mxCell>
        <mxCell id="r-W4MLv6wnLr3ksw_QMo-47" value="" style="edgeStyle=orthogonalEdgeStyle;rounded=0;orthogonalLoop=1;jettySize=auto;html=1;" edge="1" parent="1" source="r-W4MLv6wnLr3ksw_QMo-44" target="r-W4MLv6wnLr3ksw_QMo-46">
          <mxGeometry relative="1" as="geometry" />
        </mxCell>
        <mxCell id="r-W4MLv6wnLr3ksw_QMo-44" value="neo.inbound-consolidated.datas.raw-03-compute fields" style="sketch=0;outlineConnect=0;fontColor=#0D0D0D;fillColor=#6a00ff;strokeColor=#3700CC;dashed=0;verticalLabelPosition=bottom;verticalAlign=top;align=center;html=1;fontSize=12;fontStyle=0;aspect=fixed;pointerEvents=1;shape=mxgraph.aws4.redshift_streaming_ingestion;" vertex="1" parent="1">
          <mxGeometry x="500" y="820" width="30.95" height="34" as="geometry" />
        </mxCell>
        <mxCell id="r-W4MLv6wnLr3ksw_QMo-49" value="" style="edgeStyle=orthogonalEdgeStyle;rounded=0;orthogonalLoop=1;jettySize=auto;html=1;" edge="1" parent="1" source="r-W4MLv6wnLr3ksw_QMo-46" target="r-W4MLv6wnLr3ksw_QMo-48">
          <mxGeometry relative="1" as="geometry" />
        </mxCell>
        <mxCell id="r-W4MLv6wnLr3ksw_QMo-46" value="neo.inbound-consolidated.datas.raw-04-normaize" style="sketch=0;outlineConnect=0;fontColor=#0D0D0D;fillColor=#d80073;strokeColor=#A50040;dashed=0;verticalLabelPosition=bottom;verticalAlign=top;align=center;html=1;fontSize=12;fontStyle=0;aspect=fixed;pointerEvents=1;shape=mxgraph.aws4.redshift_streaming_ingestion;" vertex="1" parent="1">
          <mxGeometry x="329.05" y="840" width="30.95" height="34" as="geometry" />
        </mxCell>
        <mxCell id="r-W4MLv6wnLr3ksw_QMo-50" style="edgeStyle=orthogonalEdgeStyle;rounded=0;orthogonalLoop=1;jettySize=auto;html=1;" edge="1" parent="1" source="r-W4MLv6wnLr3ksw_QMo-48" target="r-W4MLv6wnLr3ksw_QMo-23">
          <mxGeometry relative="1" as="geometry">
            <Array as="points">
              <mxPoint x="206" y="1010" />
            </Array>
          </mxGeometry>
        </mxCell>
        <mxCell id="r-W4MLv6wnLr3ksw_QMo-48" value="neo.inbound-consolidated.datas.raw-05-cleanup" style="sketch=0;outlineConnect=0;fontColor=#0D0D0D;fillColor=#a20025;strokeColor=#6F0000;dashed=0;verticalLabelPosition=bottom;verticalAlign=top;align=center;html=1;fontSize=12;fontStyle=0;aspect=fixed;pointerEvents=1;shape=mxgraph.aws4.redshift_streaming_ingestion;" vertex="1" parent="1">
          <mxGeometry x="169.05000000000004" y="860" width="30.95" height="34" as="geometry" />
        </mxCell>
      </root>
    </mxGraphModel>
  </diagram>
</mxfile>
